# xmcd CD database file
#
# Track frame offsets:
#	150
#	29972
#	45014
#	77890
#	91050
#	114031
#	131248
#	170165
#
# Disc length: 2567 seconds
#
# Revision: 1
# Processed by: cddbd v1.4PL0 Copyright (c) Steve Scherf et al.
# Submitted via: CDex 1.51
#
DISCID=600a0508
DTITLE=The Microscopic Septet - Take The Z Train
DYEAR=1983
DGENRE=Jazz
TTITLE0=Chinese Twilight Zone
TTITLE1=Wishful Thinking
TTITLE2=Take The Z Train
TTITLE3=Mr.Bradley, Mr.Martin
TTITLE4=Kelly Grows Up
TTITLE5=Pack The Ermines, Mary
TTITLE6=I Didn't Do It
TTITLE7=A Strange Thought Entered My Head
EXTD=YEAR: 1983
EXTT0=
EXTT1=
EXTT2=
EXTT3=
EXTT4=
EXTT5=
EXTT6=
EXTT7=
PLAYORDER=
